<!-- Credit goes to https://app.haikei.app/ -->
<svg id="visual" viewBox="0 0 960 540" width="960" height="540" xmlns="http://www.w3.org/2000/svg"
  xmlns:xlink="http://www.w3.org/1999/xlink" version="1.1">
  <path
    d="M0 269L22.8 285.3C45.7 301.7 91.3 334.3 137 331C182.7 327.7 228.3 288.3 274 291.3C319.7 294.3 365.3 339.7 411.2 358C457 376.3 503 367.7 548.8 348.8C594.7 330 640.3 301 686 301.3C731.7 301.7 777.3 331.3 823 342.8C868.7 354.3 914.3 347.7 937.2 344.3L960 341L960 541L937.2 541C914.3 541 868.7 541 823 541C777.3 541 731.7 541 686 541C640.3 541 594.7 541 548.8 541C503 541 457 541 411.2 541C365.3 541 319.7 541 274 541C228.3 541 182.7 541 137 541C91.3 541 45.7 541 22.8 541L0 541Z"
    fill="#d0b641" stroke-linecap="round" stroke-linejoin="miter"></path>
</svg>